STARTFONT 2.1
FONT ledmatrix-tom-thumb-4x6
SIZE 6 75 75
FONTBOUNDINGBOX 5 6 0 0
STARTPROPERTIES 2
FONT_ASCENT 6
FONT_DESCENT 0
ENDPROPERTIES
CHARS 78
STARTCHAR U+0020
ENCODING 32
SWIDTH 400 0
DWIDTH 5 0
BBX 4 6 0 0
BITMAP
00
00
00
00
00
00
ENDCHAR
STARTCHAR U+0021
ENCODING 33
SWIDTH 400 0
DWIDTH 5 0
BBX 4 6 0 0
BITMAP
00
00
00
00
00
00
ENDCHAR
STARTCHAR U+0022
ENCODING 34
SWIDTH 400 0
DWIDTH 5 0
BBX 4 6 0 0
BITMAP
60
60
00
00
00
00
ENDCHAR
STARTCHAR U+0027
ENCODING 39
SWIDTH 400 0
DWIDTH 5 0
BBX 4 6 0 0
BITMAP
00
00
00
00
00
00
ENDCHAR
STARTCHAR U+0028
ENCODING 40
SWIDTH 400 0
DWIDTH 5 0
BBX 4 6 0 0
BITMAP
20
00
40
40
00
20
ENDCHAR
STARTCHAR U+0029
ENCODING 41
SWIDTH 400 0
DWIDTH 5 0
BBX 4 6 0 0
BITMAP
40
00
20
20
00
40
ENDCHAR
STARTCHAR U+002A
ENCODING 42
SWIDTH 400 0
DWIDTH 5 0
BBX 4 6 0 0
BITMAP
00
90
60
F0
90
00
ENDCHAR
STARTCHAR U+002B
ENCODING 43
SWIDTH 400 0
DWIDTH 5 0
BBX 4 6 0 0
BITMAP
00
00
00
F0
00
00
ENDCHAR
STARTCHAR U+002C
ENCODING 44
SWIDTH 400 0
DWIDTH 5 0
BBX 4 6 0 0
BITMAP
00
00
00
00
00
40
ENDCHAR
STARTCHAR U+002D
ENCODING 45
SWIDTH 400 0
DWIDTH 5 0
BBX 4 6 0 0
BITMAP
00
00
00
F0
00
00
ENDCHAR
STARTCHAR U+002E
ENCODING 46
SWIDTH 400 0
DWIDTH 5 0
BBX 4 6 0 0
BITMAP
00
00
00
00
00
00
ENDCHAR
STARTCHAR U+002F
ENCODING 47
SWIDTH 400 0
DWIDTH 5 0
BBX 4 6 0 0
BITMAP
10
20
00
40
00
00
ENDCHAR
STARTCHAR U+0030
ENCODING 48
SWIDTH 400 0
DWIDTH 5 0
BBX 4 6 0 0
BITMAP
60
90
B0
90
90
60
ENDCHAR
STARTCHAR U+0031
ENCODING 49
SWIDTH 400 0
DWIDTH 5 0
BBX 4 6 0 0
BITMAP
00
40
00
00
00
60
ENDCHAR
STARTCHAR U+0032
ENCODING 50
SWIDTH 400 0
DWIDTH 5 0
BBX 4 6 0 0
BITMAP
60
90
10
20
40
F0
ENDCHAR
STARTCHAR U+0033
ENCODING 51
SWIDTH 400 0
DWIDTH 5 0
BBX 4 6 0 0
BITMAP
E0
10
10
60
10
E0
ENDCHAR
STARTCHAR U+0034
ENCODING 52
SWIDTH 400 0
DWIDTH 5 0
BBX 4 6 0 0
BITMAP
20
20
60
A0
20
20
ENDCHAR
STARTCHAR U+0035
ENCODING 53
SWIDTH 400 0
DWIDTH 5 0
BBX 4 6 0 0
BITMAP
F0
80
80
E0
10
E0
ENDCHAR
STARTCHAR U+0036
ENCODING 54
SWIDTH 400 0
DWIDTH 5 0
BBX 4 6 0 0
BITMAP
20
40
80
E0
90
60
ENDCHAR
STARTCHAR U+0037
ENCODING 55
SWIDTH 400 0
DWIDTH 5 0
BBX 4 6 0 0
BITMAP
F0
10
20
00
40
40
ENDCHAR
STARTCHAR U+0038
ENCODING 56
SWIDTH 400 0
DWIDTH 5 0
BBX 4 6 0 0
BITMAP
60
90
90
60
90
60
ENDCHAR
STARTCHAR U+0039
ENCODING 57
SWIDTH 400 0
DWIDTH 5 0
BBX 4 6 0 0
BITMAP
60
90
90
70
20
C0
ENDCHAR
STARTCHAR U+003A
ENCODING 58
SWIDTH 400 0
DWIDTH 5 0
BBX 4 6 0 0
BITMAP
00
00
00
00
00
00
ENDCHAR
STARTCHAR U+003B
ENCODING 59
SWIDTH 400 0
DWIDTH 5 0
BBX 4 6 0 0
BITMAP
00
00
00
00
00
40
ENDCHAR
STARTCHAR U+003F
ENCODING 63
SWIDTH 400 0
DWIDTH 5 0
BBX 4 6 0 0
BITMAP
60
90
10
20
00
00
ENDCHAR
STARTCHAR U+0041
ENCODING 65
SWIDTH 400 0
DWIDTH 5 0
BBX 4 6 0 0
BITMAP
60
90
90
F0
90
90
ENDCHAR
STARTCHAR U+0042
ENCODING 66
SWIDTH 400 0
DWIDTH 5 0
BBX 4 6 0 0
BITMAP
E0
90
90
E0
90
E0
ENDCHAR
STARTCHAR U+0043
ENCODING 67
SWIDTH 400 0
DWIDTH 5 0
BBX 4 6 0 0
BITMAP
60
90
80
80
90
60
ENDCHAR
STARTCHAR U+0044
ENCODING 68
SWIDTH 400 0
DWIDTH 5 0
BBX 4 6 0 0
BITMAP
E0
90
90
90
90
E0
ENDCHAR
STARTCHAR U+0045
ENCODING 69
SWIDTH 400 0
DWIDTH 5 0
BBX 4 6 0 0
BITMAP
F0
80
80
E0
80
F0
ENDCHAR
STARTCHAR U+0046
ENCODING 70
SWIDTH 400 0
DWIDTH 5 0
BBX 4 6 0 0
BITMAP
F0
80
80
E0
80
80
ENDCHAR
STARTCHAR U+0047
ENCODING 71
SWIDTH 400 0
DWIDTH 5 0
BBX 4 6 0 0
BITMAP
60
90
80
B0
90
60
ENDCHAR
STARTCHAR U+0048
ENCODING 72
SWIDTH 400 0
DWIDTH 5 0
BBX 4 6 0 0
BITMAP
90
90
90
F0
90
90
ENDCHAR
STARTCHAR U+0049
ENCODING 73
SWIDTH 400 0
DWIDTH 5 0
BBX 4 6 0 0
BITMAP
60
00
00
00
00
60
ENDCHAR
STARTCHAR U+004A
ENCODING 74
SWIDTH 400 0
DWIDTH 5 0
BBX 4 6 0 0
BITMAP
10
10
10
10
90
60
ENDCHAR
STARTCHAR U+004B
ENCODING 75
SWIDTH 400 0
DWIDTH 5 0
BBX 4 6 0 0
BITMAP
90
A0
80
C0
A0
90
ENDCHAR
STARTCHAR U+004C
ENCODING 76
SWIDTH 400 0
DWIDTH 5 0
BBX 4 6 0 0
BITMAP
80
80
80
80
80
F0
ENDCHAR
STARTCHAR U+004D
ENCODING 77
SWIDTH 400 0
DWIDTH 5 0
BBX 4 6 0 0
BITMAP
90
F0
90
90
90
90
ENDCHAR
STARTCHAR U+004E
ENCODING 78
SWIDTH 400 0
DWIDTH 5 0
BBX 4 6 0 0
BITMAP
90
D0
90
B0
90
90
ENDCHAR
STARTCHAR U+004F
ENCODING 79
SWIDTH 400 0
DWIDTH 5 0
BBX 4 6 0 0
BITMAP
60
90
90
90
90
60
ENDCHAR
STARTCHAR U+0050
ENCODING 80
SWIDTH 400 0
DWIDTH 5 0
BBX 4 6 0 0
BITMAP
E0
90
90
E0
80
80
ENDCHAR
STARTCHAR U+0051
ENCODING 81
SWIDTH 400 0
DWIDTH 5 0
BBX 4 6 0 0
BITMAP
60
90
90
90
A0
50
ENDCHAR
STARTCHAR U+0052
ENCODING 82
SWIDTH 400 0
DWIDTH 5 0
BBX 4 6 0 0
BITMAP
E0
90
90
E0
A0
90
ENDCHAR
STARTCHAR U+0053
ENCODING 83
SWIDTH 400 0
DWIDTH 5 0
BBX 4 6 0 0
BITMAP
70
80
80
60
10
E0
ENDCHAR
STARTCHAR U+0054
ENCODING 84
SWIDTH 400 0
DWIDTH 5 0
BBX 4 6 0 0
BITMAP
F0
00
00
00
00
00
ENDCHAR
STARTCHAR U+0055
ENCODING 85
SWIDTH 400 0
DWIDTH 5 0
BBX 4 6 0 0
BITMAP
90
90
90
90
90
60
ENDCHAR
STARTCHAR U+0056
ENCODING 86
SWIDTH 400 0
DWIDTH 5 0
BBX 4 6 0 0
BITMAP
90
90
90
90
60
00
ENDCHAR
STARTCHAR U+0057
ENCODING 87
SWIDTH 400 0
DWIDTH 5 0
BBX 4 6 0 0
BITMAP
90
90
90
90
90
60
ENDCHAR
STARTCHAR U+0058
ENCODING 88
SWIDTH 400 0
DWIDTH 5 0
BBX 4 6 0 0
BITMAP
90
90
60
00
90
90
ENDCHAR
STARTCHAR U+0059
ENCODING 89
SWIDTH 400 0
DWIDTH 5 0
BBX 4 6 0 0
BITMAP
90
90
60
00
00
00
ENDCHAR
STARTCHAR U+005A
ENCODING 90
SWIDTH 400 0
DWIDTH 5 0
BBX 4 6 0 0
BITMAP
F0
10
20
00
80
F0
ENDCHAR
STARTCHAR U+005F
ENCODING 95
SWIDTH 400 0
DWIDTH 5 0
BBX 4 6 0 0
BITMAP
00
00
00
00
00
F0
ENDCHAR
STARTCHAR U+0061
ENCODING 97
SWIDTH 400 0
DWIDTH 5 0
BBX 4 6 0 0
BITMAP
60
90
90
F0
90
90
ENDCHAR
STARTCHAR U+0062
ENCODING 98
SWIDTH 400 0
DWIDTH 5 0
BBX 4 6 0 0
BITMAP
E0
90
90
E0
90
E0
ENDCHAR
STARTCHAR U+0063
ENCODING 99
SWIDTH 400 0
DWIDTH 5 0
BBX 4 6 0 0
BITMAP
60
90
80
80
90
60
ENDCHAR
STARTCHAR U+0064
ENCODING 100
SWIDTH 400 0
DWIDTH 5 0
BBX 4 6 0 0
BITMAP
E0
90
90
90
90
E0
ENDCHAR
STARTCHAR U+0065
ENCODING 101
SWIDTH 400 0
DWIDTH 5 0
BBX 4 6 0 0
BITMAP
F0
80
80
E0
80
F0
ENDCHAR
STARTCHAR U+0066
ENCODING 102
SWIDTH 400 0
DWIDTH 5 0
BBX 4 6 0 0
BITMAP
F0
80
80
E0
80
80
ENDCHAR
STARTCHAR U+0067
ENCODING 103
SWIDTH 400 0
DWIDTH 5 0
BBX 4 6 0 0
BITMAP
60
90
80
B0
90
60
ENDCHAR
STARTCHAR U+0068
ENCODING 104
SWIDTH 400 0
DWIDTH 5 0
BBX 4 6 0 0
BITMAP
90
90
90
F0
90
90
ENDCHAR
STARTCHAR U+0069
ENCODING 105
SWIDTH 400 0
DWIDTH 5 0
BBX 4 6 0 0
BITMAP
60
00
00
00
00
60
ENDCHAR
STARTCHAR U+006A
ENCODING 106
SWIDTH 400 0
DWIDTH 5 0
BBX 4 6 0 0
BITMAP
10
10
10
10
90
60
ENDCHAR
STARTCHAR U+006B
ENCODING 107
SWIDTH 400 0
DWIDTH 5 0
BBX 4 6 0 0
BITMAP
90
A0
80
C0
A0
90
ENDCHAR
STARTCHAR U+006C
ENCODING 108
SWIDTH 400 0
DWIDTH 5 0
BBX 4 6 0 0
BITMAP
80
80
80
80
80
F0
ENDCHAR
STARTCHAR U+006D
ENCODING 109
SWIDTH 400 0
DWIDTH 5 0
BBX 4 6 0 0
BITMAP
90
F0
90
90
90
90
ENDCHAR
STARTCHAR U+006E
ENCODING 110
SWIDTH 400 0
DWIDTH 5 0
BBX 4 6 0 0
BITMAP
90
D0
90
B0
90
90
ENDCHAR
STARTCHAR U+006F
ENCODING 111
SWIDTH 400 0
DWIDTH 5 0
BBX 4 6 0 0
BITMAP
60
90
90
90
90
60
ENDCHAR
STARTCHAR U+0070
ENCODING 112
SWIDTH 400 0
DWIDTH 5 0
BBX 4 6 0 0
BITMAP
E0
90
90
E0
80
80
ENDCHAR
STARTCHAR U+0071
ENCODING 113
SWIDTH 400 0
DWIDTH 5 0
BBX 4 6 0 0
BITMAP
60
90
90
90
A0
50
ENDCHAR
STARTCHAR U+0072
ENCODING 114
SWIDTH 400 0
DWIDTH 5 0
BBX 4 6 0 0
BITMAP
E0
90
90
E0
A0
90
ENDCHAR
STARTCHAR U+0073
ENCODING 115
SWIDTH 400 0
DWIDTH 5 0
BBX 4 6 0 0
BITMAP
70
80
80
60
10
E0
ENDCHAR
STARTCHAR U+0074
ENCODING 116
SWIDTH 400 0
DWIDTH 5 0
BBX 4 6 0 0
BITMAP
F0
00
00
00
00
00
ENDCHAR
STARTCHAR U+0075
ENCODING 117
SWIDTH 400 0
DWIDTH 5 0
BBX 4 6 0 0
BITMAP
90
90
90
90
90
60
ENDCHAR
STARTCHAR U+0076
ENCODING 118
SWIDTH 400 0
DWIDTH 5 0
BBX 4 6 0 0
BITMAP
90
90
90
90
60
00
ENDCHAR
STARTCHAR U+0077
ENCODING 119
SWIDTH 400 0
DWIDTH 5 0
BBX 4 6 0 0
BITMAP
90
90
90
90
90
60
ENDCHAR
STARTCHAR U+0078
ENCODING 120
SWIDTH 400 0
DWIDTH 5 0
BBX 4 6 0 0
BITMAP
90
90
60
00
90
90
ENDCHAR
STARTCHAR U+0079
ENCODING 121
SWIDTH 400 0
DWIDTH 5 0
BBX 4 6 0 0
BITMAP
90
90
60
00
00
00
ENDCHAR
STARTCHAR U+007A
ENCODING 122
SWIDTH 400 0
DWIDTH 5 0
BBX 4 6 0 0
BITMAP
F0
10
20
00
80
F0
ENDCHAR
ENDFONT
